STARTFONT 2.1
FONT -WRI-Mathematica4-Bold-R-Normal--15-150-75-75-p-110-Adobe-FontSpecific
SIZE 15 75 75
FONTBOUNDINGBOX 40 18 -1 -4
STARTPROPERTIES 16
FOUNDRY "WRI"
FAMILY_NAME "Mathematica4"
WEIGHT_NAME "Bold"
SLANT "R"
SETWIDTH_NAME "Normal"
PIXEL_SIZE 15
POINT_SIZE 150
RESOLUTION_X 75
RESOLUTION_Y 75
SPACING "p"
AVERAGE_WIDTH 110
CHARSET_REGISTRY "Adobe"
CHARSET_ENCODING "FontSpecific"
FONT_DESCENT 4
FONT_ASCENT 14
DEFAULT_CHAR 32
ENDPROPERTIES
CHARS 224
STARTCHAR Space
ENCODING 32
SWIDTH 189 0
DWIDTH 3 0
BBX 0 0 0 0
BITMAP
ENDCHAR
STARTCHAR RArrowBar
ENCODING 33
SWIDTH 962 0
DWIDTH 14 0
BBX 13 8 1 0
BITMAP
0118
0198
00d8
fff8
fff8
00d8
0198
0118
ENDCHAR
STARTCHAR LTackArrow
ENCODING 34
SWIDTH 922 0
DWIDTH 14 0
BBX 12 8 1 0
BITMAP
1030
3030
6030
fff0
fff0
6030
3030
1030
ENDCHAR
STARTCHAR RTackArrow
ENCODING 35
SWIDTH 922 0
DWIDTH 14 0
BBX 12 8 1 0
BITMAP
c080
c0c0
c060
fff0
fff0
c060
c0c0
c080
ENDCHAR
STARTCHAR UpArrowBar
ENCODING 36
SWIDTH 590 0
DWIDTH 9 0
BBX 8 13 1 0
BITMAP
ff
ff
18
3c
7e
db
18
18
18
18
18
18
18
ENDCHAR
STARTCHAR DownArrowBar
ENCODING 37
SWIDTH 590 0
DWIDTH 9 0
BBX 8 13 1 0
BITMAP
18
18
18
18
18
18
18
db
7e
3c
18
ff
ff
ENDCHAR
STARTCHAR UpTackArrow
ENCODING 38
SWIDTH 591 0
DWIDTH 9 0
BBX 8 12 1 0
BITMAP
18
3c
7e
db
18
18
18
18
18
18
ff
ff
ENDCHAR
STARTCHAR DownTackArrow
ENCODING 39
SWIDTH 591 0
DWIDTH 9 0
BBX 8 12 1 0
BITMAP
ff
ff
18
18
18
18
18
18
db
7e
3c
18
ENDCHAR
STARTCHAR LVectorBar
ENCODING 40
SWIDTH 982 0
DWIDTH 15 0
BBX 13 8 1 0
BITMAP
c200
c600
cc00
dff8
fff8
c000
c000
c000
ENDCHAR
STARTCHAR RVectorBar
ENCODING 41
SWIDTH 982 0
DWIDTH 15 0
BBX 13 8 1 0
BITMAP
0218
0318
0198
ffd8
fff8
0018
0018
0018
ENDCHAR
STARTCHAR DownLVectorBar
ENCODING 42
SWIDTH 982 0
DWIDTH 15 0
BBX 13 8 1 0
BITMAP
c000
c000
c000
fff8
dff8
cc00
c600
0200
ENDCHAR
STARTCHAR DownRVectorBar
ENCODING 43
SWIDTH 982 0
DWIDTH 15 0
BBX 13 8 1 0
BITMAP
0018
0018
0018
fff8
ffd8
0198
0318
0200
ENDCHAR
STARTCHAR LTackVector
ENCODING 44
SWIDTH 941 0
DWIDTH 14 0
BBX 12 8 1 0
BITMAP
0830
1830
3030
7ff0
fff0
0030
0030
0030
ENDCHAR
STARTCHAR RTackVector
ENCODING 45
SWIDTH 941 0
DWIDTH 14 0
BBX 12 8 1 0
BITMAP
c100
c180
c0c0
ffe0
fff0
c000
c000
c000
ENDCHAR
STARTCHAR DownLTackVector
ENCODING 46
SWIDTH 941 0
DWIDTH 14 0
BBX 12 8 1 0
BITMAP
0030
0030
0030
fff0
7ff0
3030
1830
0830
ENDCHAR
STARTCHAR DownRTackVector
ENCODING 47
SWIDTH 941 0
DWIDTH 14 0
BBX 12 8 1 0
BITMAP
c000
c000
c000
fff0
ffe0
c0c0
c180
c100
ENDCHAR
STARTCHAR LVector
ENCODING 48
SWIDTH 887 0
DWIDTH 13 0
BBX 11 5 1 3
BITMAP
0800
1800
3000
7fe0
ffe0
ENDCHAR
STARTCHAR RVector
ENCODING 49
SWIDTH 887 0
DWIDTH 13 0
BBX 10 5 1 3
BITMAP
0200
0300
0180
ffc0
ffc0
ENDCHAR
STARTCHAR LRVector
ENCODING 50
SWIDTH 1068 0
DWIDTH 16 0
BBX 14 5 1 3
BITMAP
0840
1860
3030
7ff8
fffc
ENDCHAR
STARTCHAR DownLVector
ENCODING 51
SWIDTH 887 0
DWIDTH 13 0
BBX 11 5 1 0
BITMAP
ffe0
7fe0
3000
1800
0800
ENDCHAR
STARTCHAR DownRVector
ENCODING 52
SWIDTH 887 0
DWIDTH 13 0
BBX 11 5 1 0
BITMAP
ffe0
ffc0
0180
0300
0200
ENDCHAR
STARTCHAR DownLRVector
ENCODING 53
SWIDTH 1068 0
DWIDTH 16 0
BBX 14 5 1 0
BITMAP
fffc
7ff8
3030
1860
0840
ENDCHAR
STARTCHAR LUpDownVector
ENCODING 54
SWIDTH 422 0
DWIDTH 6 0
BBX 5 14 0 0
BITMAP
08
18
38
78
d8
18
18
18
18
d8
78
38
18
08
ENDCHAR
STARTCHAR RUpDownVector
ENCODING 55
SWIDTH 422 0
DWIDTH 6 0
BBX 5 14 1 0
BITMAP
80
c0
e0
f0
d8
c0
c0
c0
c0
d8
f0
e0
c0
80
ENDCHAR
STARTCHAR LUpVectorBar
ENCODING 56
SWIDTH 590 0
DWIDTH 9 0
BBX 8 13 1 0
BITMAP
ff
ff
08
18
38
78
d8
18
18
18
18
18
18
ENDCHAR
STARTCHAR LDownVectorBar
ENCODING 57
SWIDTH 590 0
DWIDTH 9 0
BBX 8 13 1 0
BITMAP
18
18
18
18
18
18
d8
78
38
18
08
ff
ff
ENDCHAR
STARTCHAR RUpVectorBar
ENCODING 58
SWIDTH 590 0
DWIDTH 9 0
BBX 8 13 1 0
BITMAP
ff
ff
10
18
1c
1e
1b
18
18
18
18
18
18
ENDCHAR
STARTCHAR RDownVectorBar
ENCODING 59
SWIDTH 590 0
DWIDTH 9 0
BBX 8 13 1 0
BITMAP
18
18
18
18
18
18
1b
1e
1c
18
10
ff
ff
ENDCHAR
STARTCHAR LUpTackVector
ENCODING 60
SWIDTH 590 0
DWIDTH 9 0
BBX 8 12 1 0
BITMAP
08
18
38
78
d8
18
18
18
18
18
ff
ff
ENDCHAR
STARTCHAR LDownTackVector
ENCODING 61
SWIDTH 590 0
DWIDTH 9 0
BBX 8 12 1 0
BITMAP
ff
ff
18
18
18
18
18
d8
78
38
18
08
ENDCHAR
STARTCHAR RUpTackVector
ENCODING 62
SWIDTH 590 0
DWIDTH 9 0
BBX 8 12 1 0
BITMAP
10
18
1c
1e
1b
18
18
18
18
18
ff
ff
ENDCHAR
STARTCHAR RDownTackVector
ENCODING 63
SWIDTH 590 0
DWIDTH 9 0
BBX 8 12 1 0
BITMAP
ff
ff
18
18
18
18
18
1b
1e
1c
18
10
ENDCHAR
STARTCHAR LUpVector
ENCODING 64
SWIDTH 421 0
DWIDTH 6 0
BBX 5 11 0 0
BITMAP
08
18
38
78
d8
18
18
18
18
18
18
ENDCHAR
STARTCHAR ExtensUp1
ENCODING 65
SWIDTH 590 0
DWIDTH 9 0
BBX 2 5 4 0
BITMAP
c0
c0
c0
c0
c0
ENDCHAR
STARTCHAR LDownVector
ENCODING 66
SWIDTH 421 0
DWIDTH 6 0
BBX 5 11 0 0
BITMAP
18
18
18
18
18
18
d8
78
38
18
08
ENDCHAR
STARTCHAR RUpVector
ENCODING 67
SWIDTH 422 0
DWIDTH 6 0
BBX 5 11 1 0
BITMAP
80
c0
e0
f0
d8
c0
c0
c0
c0
c0
c0
ENDCHAR
STARTCHAR ExtensUp2
ENCODING 68
SWIDTH 422 0
DWIDTH 6 0
BBX 2 5 1 0
BITMAP
c0
c0
c0
c0
c0
ENDCHAR
STARTCHAR RDownVector
ENCODING 69
SWIDTH 422 0
DWIDTH 6 0
BBX 5 11 1 0
BITMAP
c0
c0
c0
c0
c0
c0
d8
f0
e0
c0
80
ENDCHAR
STARTCHAR Equilibrium
ENCODING 70
SWIDTH 903 0
DWIDTH 14 0
BBX 12 11 1 -2
BITMAP
0100
0180
00c0
ffe0
fff0
0000
fff0
7ff0
3000
1800
0800
ENDCHAR
STARTCHAR RvrsEquilibrium
ENCODING 71
SWIDTH 903 0
DWIDTH 14 0
BBX 12 11 1 -2
BITMAP
0800
1800
3000
7ff0
fff0
0000
fff0
ffe0
00c0
0180
0100
ENDCHAR
STARTCHAR EquilbrmHeadL
ENCODING 72
SWIDTH 388 0
DWIDTH 6 0
BBX 5 8 1 -2
BITMAP
f8
f8
00
f8
78
30
18
08
ENDCHAR
STARTCHAR EquilbrmheadR
ENCODING 73
SWIDTH 388 0
DWIDTH 6 0
BBX 5 8 0 1
BITMAP
80
c0
60
f0
f8
00
f8
f8
ENDCHAR
STARTCHAR RvrsEquilbrmHeadL
ENCODING 74
SWIDTH 388 0
DWIDTH 6 0
BBX 5 8 1 1
BITMAP
08
18
30
78
f8
00
f8
f8
ENDCHAR
STARTCHAR RvrsEquilbrmHeadR
ENCODING 75
SWIDTH 388 0
DWIDTH 6 0
BBX 5 8 0 -2
BITMAP
f8
f8
00
f8
f0
60
c0
80
ENDCHAR
STARTCHAR UpEquilibrium
ENCODING 76
SWIDTH 833 0
DWIDTH 13 0
BBX 11 11 1 0
BITMAP
0b00
1b00
3b00
7b00
db00
1b00
1b60
1bc0
1b80
1b00
1a00
ENDCHAR
STARTCHAR RvrsUpEquilibrium
ENCODING 77
SWIDTH 834 0
DWIDTH 13 0
BBX 11 11 1 0
BITMAP
1a00
1b00
1b80
1bc0
1b60
1b00
db00
7b00
3b00
1b00
0b00
ENDCHAR
STARTCHAR LArrowHookUp
ENCODING 78
SWIDTH 870 0
DWIDTH 13 0
BBX 11 8 1 0
BITMAP
11c0
31e0
6060
ffe0
ffc0
6000
3000
1000
ENDCHAR
STARTCHAR RArrowHookUp
ENCODING 79
SWIDTH 870 0
DWIDTH 13 0
BBX 11 8 1 0
BITMAP
7100
f180
c0c0
ffe0
7fe0
00c0
0180
0100
ENDCHAR
STARTCHAR LArrow
ENCODING 80
SWIDTH 870 0
DWIDTH 13 0
BBX 11 8 1 0
BITMAP
1000
3000
6000
ffe0
ffe0
6000
3000
1000
ENDCHAR
STARTCHAR Extens
ENCODING 81
SWIDTH 364 0
DWIDTH 5 0
BBX 6 2 0 3
BITMAP
fc
fc
ENDCHAR
STARTCHAR LeftTackBase
ENCODING 82
SWIDTH 246 0
DWIDTH 4 0
BBX 4 8 0 0
BITMAP
30
30
30
f0
f0
30
30
30
ENDCHAR
STARTCHAR RightTackBase
ENCODING 83
SWIDTH 246 0
DWIDTH 4 0
BBX 4 8 0 0
BITMAP
c0
c0
c0
f0
f0
c0
c0
c0
ENDCHAR
STARTCHAR RArrow
ENCODING 84
SWIDTH 870 0
DWIDTH 13 0
BBX 11 8 1 0
BITMAP
0100
0180
00c0
ffe0
ffe0
00c0
0180
0100
ENDCHAR
STARTCHAR RUpVector2
ENCODING 85
SWIDTH 590 0
DWIDTH 9 0
BBX 5 11 4 0
BITMAP
80
c0
e0
f0
d8
c0
c0
c0
c0
c0
c0
ENDCHAR
STARTCHAR RArrowLArrow
ENCODING 86
SWIDTH 861 0
DWIDTH 13 0
BBX 11 9 1 -1
BITMAP
0080
00c0
ffe0
ffe0
60c0
ffe0
ffe0
6000
2000
ENDCHAR
STARTCHAR LArrowRArrow
ENCODING 87
SWIDTH 861 0
DWIDTH 13 0
BBX 11 9 1 -1
BITMAP
2000
6000
ffe0
ffe0
60c0
ffe0
ffe0
00c0
0080
ENDCHAR
STARTCHAR RArrowLArrowHeadL
ENCODING 88
SWIDTH 297 0
DWIDTH 4 0
BBX 4 7 0 -1
BITMAP
f0
f0
60
f0
f0
60
20
ENDCHAR
STARTCHAR RArrowLArrowHeadR
ENCODING 89
SWIDTH 297 0
DWIDTH 4 0
BBX 3 7 0 1
BITMAP
80
c0
e0
e0
c0
e0
e0
ENDCHAR
STARTCHAR LArrowRArrowHeadL
ENCODING 90
SWIDTH 297 0
DWIDTH 4 0
BBX 3 7 1 1
BITMAP
20
60
e0
e0
60
e0
e0
ENDCHAR
STARTCHAR LArrowRArrowHeadR
ENCODING 91
SWIDTH 297 0
DWIDTH 4 0
BBX 4 7 0 -1
BITMAP
f0
f0
60
f0
f0
60
40
ENDCHAR
STARTCHAR UpArrowDownArrow
ENCODING 92
SWIDTH 720 0
DWIDTH 11 0
BBX 9 11 1 0
BITMAP
3600
7e00
fe00
3600
3600
3600
3600
3600
3f80
3f00
3600
ENDCHAR
STARTCHAR DownArrowUpArrow
ENCODING 93
SWIDTH 720 0
DWIDTH 11 0
BBX 9 11 1 0
BITMAP
3600
3f00
3f80
3600
3600
3600
3600
3600
fe00
7e00
3600
ENDCHAR
STARTCHAR VertExt1
ENCODING 94
SWIDTH 87 0
DWIDTH 1 0
BBX 2 3 0 0
BITMAP
c0
c0
c0
ENDCHAR
STARTCHAR HorizExt1
ENCODING 95
SWIDTH 200 0
DWIDTH 3 0
BBX 4 2 0 0
BITMAP
f0
f0
ENDCHAR
STARTCHAR UpArrow
ENCODING 96
SWIDTH 590 0
DWIDTH 9 0
BBX 8 11 1 0
BITMAP
18
3c
7e
db
18
18
18
18
18
18
18
ENDCHAR
STARTCHAR UpTackBase
ENCODING 97
SWIDTH 590 0
DWIDTH 9 0
BBX 8 4 1 0
BITMAP
18
18
ff
ff
ENDCHAR
STARTCHAR DownTackBase
ENCODING 98
SWIDTH 590 0
DWIDTH 9 0
BBX 8 4 1 0
BITMAP
ff
ff
18
18
ENDCHAR
STARTCHAR DownArrow
ENCODING 99
SWIDTH 590 0
DWIDTH 9 0
BBX 8 11 1 0
BITMAP
18
18
18
18
18
18
18
db
7e
3c
18
ENDCHAR
STARTCHAR RDownVector2
ENCODING 100
SWIDTH 590 0
DWIDTH 9 0
BBX 5 11 4 0
BITMAP
c0
c0
c0
c0
c0
c0
d8
f0
e0
c0
80
ENDCHAR
STARTCHAR UpEquilbrmHeadBttm
ENCODING 101
SWIDTH 713 0
DWIDTH 11 0
BBX 8 5 2 0
BITMAP
03
de
dc
d8
d0
ENDCHAR
STARTCHAR DblUpExtens2
ENCODING 102
SWIDTH 713 0
DWIDTH 11 0
BBX 5 5 2 0
BITMAP
d8
d8
d8
d8
d8
ENDCHAR
STARTCHAR RvrsUpEquilHdTop
ENCODING 103
SWIDTH 713 0
DWIDTH 11 0
BBX 8 5 2 -1
BITMAP
d0
d8
dc
de
03
ENDCHAR
STARTCHAR UpEquilbrmHeadTop
ENCODING 104
SWIDTH 726 0
DWIDTH 11 0
BBX 8 5 0 -1
BITMAP
0b
1b
3b
7b
c0
ENDCHAR
STARTCHAR DblUpExtens1
ENCODING 105
SWIDTH 726 0
DWIDTH 11 0
BBX 5 5 3 0
BITMAP
d8
d8
d8
d8
d8
ENDCHAR
STARTCHAR RvrsUpEquilibrmHdBttm
ENCODING 106
SWIDTH 727 0
DWIDTH 11 0
BBX 8 5 0 0
BITMAP
c0
7b
3b
1b
0b
ENDCHAR
STARTCHAR UpArrwDwnArrwBttm
ENCODING 107
SWIDTH 726 0
DWIDTH 11 0
BBX 7 4 3 0
BITMAP
d8
fe
fc
d8
ENDCHAR
STARTCHAR DwnArrwUpArrwTop
ENCODING 108
SWIDTH 726 0
DWIDTH 11 0
BBX 7 4 3 0
BITMAP
d8
fc
fe
d8
ENDCHAR
STARTCHAR UpArrwDwnArrwTop
ENCODING 109
SWIDTH 726 0
DWIDTH 11 0
BBX 7 4 1 0
BITMAP
36
7e
fe
36
ENDCHAR
STARTCHAR DwnArrwUpArrwBttm
ENCODING 110
SWIDTH 726 0
DWIDTH 11 0
BBX 7 4 1 0
BITMAP
36
fe
7e
36
ENDCHAR
STARTCHAR DblExtens
ENCODING 111
SWIDTH 364 0
DWIDTH 5 0
BBX 6 5 0 1
BITMAP
fc
fc
00
fc
fc
ENDCHAR
STARTCHAR OverBracket1
ENCODING 112
SWIDTH 800 0
DWIDTH 12 0
BBX 12 3 0 0
BITMAP
fff0
fff0
8010
ENDCHAR
STARTCHAR OverBracket2
ENCODING 113
SWIDTH 1050 0
DWIDTH 16 0
BBX 16 3 0 0
BITMAP
ffff
ffff
8001
ENDCHAR
STARTCHAR OverBracket3
ENCODING 114
SWIDTH 1400 0
DWIDTH 21 0
BBX 21 3 0 0
BITMAP
fffff8
fffff8
800008
ENDCHAR
STARTCHAR OverBracket4
ENCODING 115
SWIDTH 1750 0
DWIDTH 26 0
BBX 26 3 0 0
BITMAP
ffffffc0
ffffffc0
80000040
ENDCHAR
STARTCHAR OverBracketExt1
ENCODING 116
SWIDTH 200 0
DWIDTH 3 0
BBX 3 3 0 0
BITMAP
e0
e0
80
ENDCHAR
STARTCHAR OverBracketExt2
ENCODING 117
SWIDTH 200 0
DWIDTH 3 0
BBX 3 2 0 1
BITMAP
e0
e0
ENDCHAR
STARTCHAR OverBracketExt3
ENCODING 118
SWIDTH 200 0
DWIDTH 3 0
BBX 3 3 0 0
BITMAP
e0
e0
20
ENDCHAR
STARTCHAR ShortUpArrow
ENCODING 119
SWIDTH 591 0
DWIDTH 9 0
BBX 8 8 1 0
BITMAP
18
3c
7e
db
18
18
18
18
ENDCHAR
STARTCHAR ShortDownArrow
ENCODING 120
SWIDTH 591 0
DWIDTH 9 0
BBX 8 8 1 0
BITMAP
18
18
18
18
db
7e
3c
18
ENDCHAR
STARTCHAR ShortLArrow
ENCODING 121
SWIDTH 652 0
DWIDTH 10 0
BBX 8 8 1 0
BITMAP
10
30
60
ff
ff
60
30
10
ENDCHAR
STARTCHAR ShortRArrow
ENCODING 122
SWIDTH 652 0
DWIDTH 10 0
BBX 8 8 1 0
BITMAP
08
0c
06
ff
ff
06
0c
08
ENDCHAR
STARTCHAR LArrowBar
ENCODING 123
SWIDTH 962 0
DWIDTH 14 0
BBX 13 8 1 0
BITMAP
c400
cc00
d800
fff8
fff8
d800
cc00
c400
ENDCHAR
STARTCHAR Dash
ENCODING 124
SWIDTH 390 0
DWIDTH 6 0
BBX 4 2 1 3
BITMAP
f0
f0
ENDCHAR
STARTCHAR LongDash
ENCODING 125
SWIDTH 545 0
DWIDTH 8 0
BBX 6 2 1 3
BITMAP
fc
fc
ENDCHAR
STARTCHAR DivisionBarExtens
ENCODING 126
SWIDTH 1010 0
DWIDTH 15 0
BBX 13 2 1 3
BITMAP
fff8
fff8
ENDCHAR
STARTCHAR DEL
ENCODING 127
SWIDTH 189 0
DWIDTH 3 0
BBX 0 0 0 0
BITMAP
ENDCHAR
STARTCHAR UnderBracket1
ENCODING 128
SWIDTH 800 0
DWIDTH 12 0
BBX 12 3 0 0
BITMAP
8010
fff0
fff0
ENDCHAR
STARTCHAR UnderBracket2
ENCODING 129
SWIDTH 1050 0
DWIDTH 16 0
BBX 16 3 0 0
BITMAP
8001
ffff
ffff
ENDCHAR
STARTCHAR UnderBracket3
ENCODING 130
SWIDTH 1400 0
DWIDTH 21 0
BBX 21 3 0 0
BITMAP
800008
fffff8
fffff8
ENDCHAR
STARTCHAR UnderBracket4
ENCODING 131
SWIDTH 1750 0
DWIDTH 26 0
BBX 26 3 0 0
BITMAP
80000040
ffffffc0
ffffffc0
ENDCHAR
STARTCHAR UnderBracketExt1
ENCODING 132
SWIDTH 200 0
DWIDTH 3 0
BBX 3 3 0 0
BITMAP
80
e0
e0
ENDCHAR
STARTCHAR UnderBracketExt2
ENCODING 133
SWIDTH 200 0
DWIDTH 3 0
BBX 3 2 0 0
BITMAP
e0
e0
ENDCHAR
STARTCHAR UnderBracketExt3
ENCODING 134
SWIDTH 200 0
DWIDTH 3 0
BBX 3 3 0 0
BITMAP
20
e0
e0
ENDCHAR
STARTCHAR LowerLeftArrow
ENCODING 135
SWIDTH 755 0
DWIDTH 11 0
BBX 9 9 1 0
BITMAP
0080
0180
0300
0600
cc00
d800
f000
f800
f800
ENDCHAR
STARTCHAR UpperLeftArrow
ENCODING 136
SWIDTH 755 0
DWIDTH 11 0
BBX 9 9 1 0
BITMAP
f800
f800
f000
d800
cc00
0600
0300
0180
0080
ENDCHAR
STARTCHAR UpperRightArrow
ENCODING 137
SWIDTH 755 0
DWIDTH 11 0
BBX 9 9 1 0
BITMAP
0f80
0f80
0780
0d80
1980
3000
6000
c000
8000
ENDCHAR
STARTCHAR LowerRightArrow
ENCODING 138
SWIDTH 755 0
DWIDTH 11 0
BBX 9 9 1 0
BITMAP
8000
c000
6000
3000
1980
0d80
0780
0f80
0f80
ENDCHAR
STARTCHAR LongLowerLeftArrow
ENCODING 139
SWIDTH 1208 0
DWIDTH 18 0
BBX 16 16 1 -3
BITMAP
0001
0003
0006
000c
0018
0030
0060
00c0
0180
0300
0600
cc00
d800
f000
f800
f800
ENDCHAR
STARTCHAR LongUpperLeftArrow
ENCODING 140
SWIDTH 1208 0
DWIDTH 18 0
BBX 16 16 1 -3
BITMAP
f800
f800
f000
d800
cc00
0600
0300
0180
00c0
0060
0030
0018
000c
0006
0003
0001
ENDCHAR
STARTCHAR LongUpperRightArrow
ENCODING 141
SWIDTH 1208 0
DWIDTH 18 0
BBX 16 16 1 -3
BITMAP
001f
001f
000f
001b
0033
0060
00c0
0180
0300
0600
0c00
1800
3000
6000
c000
8000
ENDCHAR
STARTCHAR LongLowerRightArrow
ENCODING 142
SWIDTH 1208 0
DWIDTH 18 0
BBX 16 16 1 -3
BITMAP
8000
c000
6000
3000
1800
0c00
0600
0300
0180
00c0
0060
0033
001b
000f
001f
001f
ENDCHAR
STARTCHAR Arrowhead
ENCODING 143
SWIDTH 450 0
DWIDTH 7 0
BBX 5 5 1 0
BITMAP
c0
c0
c0
f8
f8
ENDCHAR
STARTCHAR OverParen1
ENCODING 144
SWIDTH 700 0
DWIDTH 11 0
BBX 11 3 0 0
BITMAP
1f00
7fc0
8020
ENDCHAR
STARTCHAR OverParen2
ENCODING 145
SWIDTH 1050 0
DWIDTH 16 0
BBX 16 3 0 0
BITMAP
1ff8
7ffe
8001
ENDCHAR
STARTCHAR OverParen3
ENCODING 146
SWIDTH 1400 0
DWIDTH 21 0
BBX 21 3 0 0
BITMAP
1fffc0
7ffff0
800008
ENDCHAR
STARTCHAR OverParen4
ENCODING 147
SWIDTH 1750 0
DWIDTH 26 0
BBX 26 3 0 0
BITMAP
1ffffe00
7fffff80
80000040
ENDCHAR
STARTCHAR OverParenExt1
ENCODING 148
SWIDTH 330 0
DWIDTH 5 0
BBX 5 3 0 0
BITMAP
38
78
80
ENDCHAR
STARTCHAR OverParenExt2
ENCODING 149
SWIDTH 200 0
DWIDTH 3 0
BBX 3 2 0 1
BITMAP
e0
e0
ENDCHAR
STARTCHAR OverParenExt3
ENCODING 150
SWIDTH 330 0
DWIDTH 5 0
BBX 5 3 0 0
BITMAP
e0
f0
08
ENDCHAR
STARTCHAR OverBrace1
ENCODING 151
SWIDTH 700 0
DWIDTH 11 0
BBX 11 4 0 0
BITMAP
0400
7fc0
fbe0
8020
ENDCHAR
STARTCHAR OverBrace2
ENCODING 152
SWIDTH 1150 0
DWIDTH 17 0
BBX 17 4 0 0
BITMAP
008000
7fff00
ff7f80
800080
ENDCHAR
STARTCHAR OverBrace3
ENCODING 153
SWIDTH 1500 0
DWIDTH 23 0
BBX 23 4 0 0
BITMAP
001000
7ffffc
ffeffe
800002
ENDCHAR
STARTCHAR OverBrace4
ENCODING 154
SWIDTH 1850 0
DWIDTH 28 0
BBX 28 4 0 0
BITMAP
00040000
7fffffe0
fffbfff0
80000010
ENDCHAR
STARTCHAR OverBraceExt1
ENCODING 155
SWIDTH 200 0
DWIDTH 3 0
BBX 3 3 0 0
BITMAP
60
e0
80
ENDCHAR
STARTCHAR OverBraceExt2
ENCODING 156
SWIDTH 200 0
DWIDTH 3 0
BBX 3 2 0 1
BITMAP
e0
e0
ENDCHAR
STARTCHAR OverBraceExt3
ENCODING 157
SWIDTH 347 0
DWIDTH 5 0
BBX 5 3 0 1
BITMAP
20
f8
d8
ENDCHAR
STARTCHAR OverBraceExt4
ENCODING 158
SWIDTH 200 0
DWIDTH 3 0
BBX 3 3 0 0
BITMAP
c0
e0
20
ENDCHAR
STARTCHAR AngleArrowExt45
ENCODING 159
SWIDTH 308 0
DWIDTH 5 0
BBX 5 5 0 0
BITMAP
10
38
70
e0
40
ENDCHAR
STARTCHAR UnderParen1
ENCODING 160
SWIDTH 700 0
DWIDTH 11 0
BBX 11 3 0 0
BITMAP
8020
7fc0
1f00
ENDCHAR
STARTCHAR UnderParen2
ENCODING 161
SWIDTH 1050 0
DWIDTH 16 0
BBX 16 3 0 0
BITMAP
8001
7ffe
1ff8
ENDCHAR
STARTCHAR UnderParen3
ENCODING 162
SWIDTH 1400 0
DWIDTH 21 0
BBX 21 3 0 0
BITMAP
800008
7ffff0
1fffc0
ENDCHAR
STARTCHAR UnderParen4
ENCODING 163
SWIDTH 1750 0
DWIDTH 26 0
BBX 26 3 0 0
BITMAP
80000040
7fffff80
1ffffe00
ENDCHAR
STARTCHAR UnderParenExt1
ENCODING 164
SWIDTH 330 0
DWIDTH 5 0
BBX 5 3 0 0
BITMAP
80
78
38
ENDCHAR
STARTCHAR UnderParenExt2
ENCODING 165
SWIDTH 200 0
DWIDTH 3 0
BBX 3 2 0 0
BITMAP
e0
e0
ENDCHAR
STARTCHAR UnderParenExt3
ENCODING 166
SWIDTH 330 0
DWIDTH 5 0
BBX 5 3 0 0
BITMAP
08
f0
e0
ENDCHAR
STARTCHAR UnderBrace1
ENCODING 167
SWIDTH 700 0
DWIDTH 11 0
BBX 11 4 0 -1
BITMAP
8020
fbe0
7fc0
0400
ENDCHAR
STARTCHAR UnderBrace2
ENCODING 168
SWIDTH 1150 0
DWIDTH 17 0
BBX 17 4 0 -1
BITMAP
800080
ff7f80
7fff00
008000
ENDCHAR
STARTCHAR UnderBrace3
ENCODING 169
SWIDTH 1500 0
DWIDTH 23 0
BBX 23 4 0 -1
BITMAP
800002
ffeffe
7ffffc
001000
ENDCHAR
STARTCHAR UnderBrace4
ENCODING 170
SWIDTH 1850 0
DWIDTH 28 0
BBX 28 4 0 -1
BITMAP
80000010
fffdfff0
7fffffe0
00020000
ENDCHAR
STARTCHAR UnderBraceExt1
ENCODING 171
SWIDTH 200 0
DWIDTH 3 0
BBX 3 3 0 0
BITMAP
80
e0
60
ENDCHAR
STARTCHAR UnderBraceExt2
ENCODING 172
SWIDTH 200 0
DWIDTH 3 0
BBX 3 2 0 0
BITMAP
e0
e0
ENDCHAR
STARTCHAR UnderBraceExt3
ENCODING 173
SWIDTH 347 0
DWIDTH 5 0
BBX 5 3 0 -1
BITMAP
d8
f8
20
ENDCHAR
STARTCHAR UnderBraceExt4
ENCODING 174
SWIDTH 200 0
DWIDTH 3 0
BBX 3 3 0 0
BITMAP
20
e0
c0
ENDCHAR
STARTCHAR AngleArrowExt135
ENCODING 175
SWIDTH 308 0
DWIDTH 5 0
BBX 5 5 0 0
BITMAP
40
e0
70
38
10
ENDCHAR
STARTCHAR OverWedge1
ENCODING 176
SWIDTH 700 0
DWIDTH 11 0
BBX 11 3 0 0
BITMAP
0e00
7fc0
e0e0
ENDCHAR
STARTCHAR OverWedge2
ENCODING 177
SWIDTH 1050 0
DWIDTH 16 0
BBX 15 3 0 0
BITMAP
0380
3ff8
f01e
ENDCHAR
STARTCHAR OverWedge3
ENCODING 178
SWIDTH 1400 0
DWIDTH 21 0
BBX 21 3 0 0
BITMAP
00f800
1fffc0
f800f8
ENDCHAR
STARTCHAR OverWedge4
ENCODING 179
SWIDTH 1750 0
DWIDTH 26 0
BBX 27 4 0 0
BITMAP
001f0000
01fff000
3fc07f80
e00000e0
ENDCHAR
STARTCHAR Ellipsis
ENCODING 180
SWIDTH 1000 0
DWIDTH 15 0
BBX 12 2 1 -1
BITMAP
c630
c630
ENDCHAR
STARTCHAR CenterEllipsis
ENCODING 181
SWIDTH 1000 0
DWIDTH 15 0
BBX 12 2 1 3
BITMAP
c630
c630
ENDCHAR
STARTCHAR VertEllipsis
ENCODING 182
SWIDTH 279 0
DWIDTH 4 0
BBX 2 12 1 -1
BITMAP
c0
c0
00
00
00
c0
c0
00
00
00
c0
c0
ENDCHAR
STARTCHAR DiagEllipsis
ENCODING 183
SWIDTH 713 0
DWIDTH 11 0
BBX 10 10 1 0
BITMAP
00c0
00c0
0000
0000
0c00
0c00
0000
0000
c000
c000
ENDCHAR
STARTCHAR BackDiagEllipsis
ENCODING 184
SWIDTH 713 0
DWIDTH 11 0
BBX 10 10 1 0
BITMAP
c000
c000
0000
0000
0c00
0c00
0000
0000
00c0
00c0
ENDCHAR
STARTCHAR Ellipsis2
ENCODING 185
SWIDTH 1000 0
DWIDTH 15 0
BBX 12 2 1 -1
BITMAP
c630
c630
ENDCHAR
STARTCHAR CenterEllipsis2
ENCODING 186
SWIDTH 1000 0
DWIDTH 15 0
BBX 12 2 1 3
BITMAP
c630
c630
ENDCHAR
STARTCHAR VertEllipsis2
ENCODING 187
SWIDTH 279 0
DWIDTH 4 0
BBX 2 12 1 -1
BITMAP
c0
c0
00
00
00
c0
c0
00
00
00
c0
c0
ENDCHAR
STARTCHAR Dot
ENCODING 188
SWIDTH 335 0
DWIDTH 5 0
BBX 2 2 1 -1
BITMAP
c0
c0
ENDCHAR
STARTCHAR CenterDot
ENCODING 189
SWIDTH 335 0
DWIDTH 5 0
BBX 2 2 1 3
BITMAP
c0
c0
ENDCHAR
STARTCHAR BackPrime
ENCODING 190
SWIDTH 373 0
DWIDTH 6 0
BBX 4 6 1 1
BITMAP
c0
e0
60
60
30
10
ENDCHAR
STARTCHAR DblBackPrime
ENCODING 191
SWIDTH 651 0
DWIDTH 10 0
BBX 8 6 1 1
BITMAP
cc
ce
66
66
33
11
ENDCHAR
STARTCHAR UnderVee1
ENCODING 192
SWIDTH 700 0
DWIDTH 11 0
BBX 11 3 0 0
BITMAP
e0e0
7fc0
0e00
ENDCHAR
STARTCHAR UnderVee2
ENCODING 193
SWIDTH 1050 0
DWIDTH 16 0
BBX 15 3 0 0
BITMAP
f01e
3ffc
03c0
ENDCHAR
STARTCHAR UnderVee3
ENCODING 194
SWIDTH 1400 0
DWIDTH 21 0
BBX 21 3 0 0
BITMAP
f800f8
1fffe0
00f800
ENDCHAR
STARTCHAR UnderVee4
ENCODING 195
SWIDTH 1750 0
DWIDTH 26 0
BBX 27 4 0 0
BITMAP
f00000e0
3fc07fe0
01fffc00
001f0000
ENDCHAR
STARTCHAR UpPointer
ENCODING 196
SWIDTH 520 0
DWIDTH 8 0
BBX 5 3 1 2
BITMAP
20
70
f8
ENDCHAR
STARTCHAR RightPointer
ENCODING 197
SWIDTH 310 0
DWIDTH 5 0
BBX 3 5 1 1
BITMAP
80
c0
e0
c0
80
ENDCHAR
STARTCHAR DownPointer
ENCODING 198
SWIDTH 520 0
DWIDTH 8 0
BBX 5 3 1 2
BITMAP
f8
70
20
ENDCHAR
STARTCHAR LeftPointer
ENCODING 199
SWIDTH 310 0
DWIDTH 5 0
BBX 3 5 1 1
BITMAP
20
60
e0
60
20
ENDCHAR
STARTCHAR UpLHookExt
ENCODING 200
SWIDTH 275 0
DWIDTH 4 0
BBX 4 5 0 3
BITMAP
e0
f0
30
f0
e0
ENDCHAR
STARTCHAR UpRHookExt
ENCODING 201
SWIDTH 275 0
DWIDTH 4 0
BBX 4 5 0 3
BITMAP
70
f0
c0
f0
70
ENDCHAR
STARTCHAR Nbspace
ENCODING 202
SWIDTH 189 0
DWIDTH 3 0
BBX 0 0 0 0
BITMAP
ENDCHAR
STARTCHAR XBox
ENCODING 203
SWIDTH 600 0
DWIDTH 9 0
BBX 7 7 1 0
BITMAP
fe
c6
aa
92
aa
c6
fe
ENDCHAR
STARTCHAR SmileyFace
ENCODING 204
SWIDTH 577 0
DWIDTH 9 0
BBX 8 10 0 0
BITMAP
7e
83
81
a5
a5
81
a5
99
c3
7e
ENDCHAR
STARTCHAR StraightFace
ENCODING 205
SWIDTH 577 0
DWIDTH 9 0
BBX 8 10 0 0
BITMAP
7e
83
81
a5
a5
81
bd
81
c3
7e
ENDCHAR
STARTCHAR FrownFace
ENCODING 206
SWIDTH 577 0
DWIDTH 9 0
BBX 8 10 0 0
BITMAP
7e
83
81
a5
a5
99
a5
81
c3
7e
ENDCHAR
STARTCHAR ShockFace
ENCODING 207
SWIDTH 581 0
DWIDTH 9 0
BBX 9 14 0 0
BITMAP
0400
a500
5500
d700
7f00
4180
4080
5280
5280
5c80
5480
5c80
6180
3f00
ENDCHAR
STARTCHAR Strike1
ENCODING 208
SWIDTH 180 0
DWIDTH 3 0
BBX 3 5 0 1
BITMAP
60
60
60
c0
c0
ENDCHAR
STARTCHAR Strike2
ENCODING 209
SWIDTH 233 0
DWIDTH 4 0
BBX 4 8 0 0
BITMAP
30
30
60
60
60
60
c0
c0
ENDCHAR
STARTCHAR Strike3
ENCODING 210
SWIDTH 280 0
DWIDTH 4 0
BBX 4 11 0 -2
BITMAP
30
30
30
60
60
60
60
60
e0
c0
c0
ENDCHAR
STARTCHAR Strike4
ENCODING 211
SWIDTH 311 0
DWIDTH 5 0
BBX 5 12 0 -2
BITMAP
18
18
30
30
30
30
60
60
60
60
c0
c0
ENDCHAR
STARTCHAR Strike5
ENCODING 212
SWIDTH 340 0
DWIDTH 5 0
BBX 5 14 0 -2
BITMAP
18
18
30
30
30
30
30
60
60
60
60
60
c0
c0
ENDCHAR
STARTCHAR Strike6
ENCODING 213
SWIDTH 349 0
DWIDTH 5 0
BBX 5 15 0 -3
BITMAP
18
18
18
30
30
30
30
30
60
60
60
60
60
c0
c0
ENDCHAR
STARTCHAR KeyBar
ENCODING 214
SWIDTH 88 0
DWIDTH 1 0
BBX 3 2 -1 3
BITMAP
e0
e0
ENDCHAR
STARTCHAR DownLHookExt
ENCODING 215
SWIDTH 275 0
DWIDTH 4 0
BBX 4 5 0 0
BITMAP
e0
f0
30
f0
e0
ENDCHAR
STARTCHAR DownRHookExt
ENCODING 216
SWIDTH 275 0
DWIDTH 4 0
BBX 4 5 0 0
BITMAP
70
f0
c0
f0
70
ENDCHAR
STARTCHAR Icos
ENCODING 217
SWIDTH 956 0
DWIDTH 14 0
BBX 14 12 0 -1
BITMAP
0200
1de0
1560
18e0
0fdc
fac8
5738
233c
1de0
1320
0db0
0ed0
ENDCHAR
STARTCHAR KernalIcon
ENCODING 218
SWIDTH 909 0
DWIDTH 14 0
BBX 13 13 0 -2
BITMAP
0f80
3460
7fb0
59d0
89c8
ffb8
d368
b2b8
9f48
57d0
7cb0
3060
0f80
ENDCHAR
STARTCHAR LightBulb
ENCODING 219
SWIDTH 688 0
DWIDTH 10 0
BBX 9 15 0 -2
BITMAP
0800
2a00
0000
9c80
2200
4100
4100
4100
2200
2200
1400
1400
0000
1c00
0800
ENDCHAR
STARTCHAR WarningSign
ENCODING 220
SWIDTH 675 0
DWIDTH 10 0
BBX 9 10 1 0
BITMAP
0800
1400
1400
2200
2a00
4a00
4900
4100
8880
ff80
ENDCHAR
STARTCHAR WatchIcon
ENCODING 221
SWIDTH 597 0
DWIDTH 9 0
BBX 7 11 1 -1
BITMAP
78
78
78
84
94
b2
84
84
78
78
78
ENDCHAR
STARTCHAR Cedilla
ENCODING 222
SWIDTH 254 0
DWIDTH 4 0
BBX 4 4 0 -4
BITMAP
20
70
30
e0
ENDCHAR
STARTCHAR Ogonek
ENCODING 223
SWIDTH 211 0
DWIDTH 3 0
BBX 3 2 0 -2
BITMAP
80
e0
ENDCHAR
STARTCHAR AltKey
ENCODING 224
SWIDTH 1174 0
DWIDTH 18 0
BBX 16 12 1 -2
BITMAP
ffff
8001
8001
897d
8911
9511
9511
9d11
a311
a3d1
8001
ffff
ENDCHAR
STARTCHAR CmdKey
ENCODING 225
SWIDTH 1318 0
DWIDTH 20 0
BBX 18 12 1 -2
BITMAP
ffffc0
800040
800040
936e40
ab6940
a36940
a2a940
a2a940
aaa940
92ae40
800040
ffffc0
ENDCHAR
STARTCHAR CtrlKey
ENCODING 226
SWIDTH 1379 0
DWIDTH 21 0
BBX 19 12 1 -2
BITMAP
ffffe0
800020
800020
97fa20
a92a20
a12a20
a13220
a12a20
a92a20
912ba0
800020
ffffe0
ENDCHAR
STARTCHAR DelKey
ENCODING 227
SWIDTH 1143 0
DWIDTH 17 0
BBX 15 12 1 -2
BITMAP
fffe
8002
8002
b9d2
a512
a512
a5d2
a512
a512
b9de
8002
fffe
ENDCHAR
STARTCHAR EntKey
ENCODING 228
SWIDTH 1146 0
DWIDTH 17 0
BBX 15 12 1 -2
BITMAP
fffe
8002
8002
befe
a692
a692
be92
a592
a592
bd92
8002
fffe
ENDCHAR
STARTCHAR EscKey
ENCODING 229
SWIDTH 1146 0
DWIDTH 17 0
BBX 15 12 1 -2
BITMAP
fffe
8002
8002
b912
a2aa
a222
b922
a0a2
a2aa
b912
8002
fffe
ENDCHAR
STARTCHAR OptKey
ENCODING 230
SWIDTH 1187 0
DWIDTH 18 0
BBX 16 12 1 -2
BITMAP
ffff
8001
8001
99bf
a549
a549
a589
a509
a509
9909
8001
ffff
ENDCHAR
STARTCHAR RetKey
ENCODING 231
SWIDTH 1174 0
DWIDTH 18 0
BBX 16 12 1 -2
BITMAP
ffff
8001
8001
bbfd
aa11
aa11
b391
aa11
aa11
ab91
8001
ffff
ENDCHAR
STARTCHAR ShftKey
ENCODING 232
SWIDTH 1448 0
DWIDTH 22 0
BBX 20 12 1 -2
BITMAP
fffff0
800010
800010
92bfd0
aaa110
a2a110
93b110
8aa110
aaa110
92a110
800010
fffff0
ENDCHAR
STARTCHAR SpcKey
ENCODING 233
SWIDTH 1187 0
DWIDTH 18 0
BBX 16 12 1 -2
BITMAP
ffff
8001
8001
9311
aaa9
a2a1
9321
8a21
aa29
9211
8001
ffff
ENDCHAR
STARTCHAR TabKey
ENCODING 234
SWIDTH 1177 0
DWIDTH 18 0
BBX 16 12 1 -2
BITMAP
ffff
8001
8001
fd39
9125
92a5
92b9
93a5
9465
9479
8001
ffff
ENDCHAR
STARTCHAR LKeyBracket
ENCODING 235
SWIDTH 245 0
DWIDTH 4 0
BBX 4 16 -1 -4
BITMAP
30
20
20
20
20
20
20
e0
e0
20
20
20
20
20
20
30
ENDCHAR
STARTCHAR RKeyBracket
ENCODING 236
SWIDTH 245 0
DWIDTH 4 0
BBX 2 16 1 -4
BITMAP
c0
40
40
40
40
40
40
40
40
40
40
40
40
40
40
c0
ENDCHAR
STARTCHAR CloverLeaf
ENCODING 237
SWIDTH 750 0
DWIDTH 11 0
BBX 9 10 1 0
BITMAP
6300
9480
9480
7f00
1400
1400
7f00
9480
9480
6300
ENDCHAR
STARTCHAR DottedSquare
ENCODING 238
SWIDTH 764 0
DWIDTH 11 0
BBX 10 10 1 0
BITMAP
edc0
8040
8040
0000
8040
8040
0000
8040
8040
edc0
ENDCHAR
STARTCHAR RoundSpaceIndicator
ENCODING 239
SWIDTH 250 0
DWIDTH 4 0
BBX 4 2 0 -2
BITMAP
90
60
ENDCHAR
STARTCHAR CommandKey
ENCODING 240
SWIDTH 2643 0
DWIDTH 40 0
BBX 38 12 1 -2
BITMAP
fffffffffc
8000000004
8000000004
919b6c9ae4
aa5b6c9a94
a25b6d5a94
a255555a94
a25555d694
aa55563694
91955636e4
8000000004
fffffffffc
ENDCHAR
STARTCHAR ControlKey
ENCODING 241
SWIDTH 2327 0
DWIDTH 35 0
BBX 33 12 1 -2
BITMAP
ffffffff80
8000000080
8000000080
919bfe6480
aa5a4a9480
a25a4a9480
a25a4c9480
a2564a9480
aa564a9480
91964a6780
8000000080
ffffffff80
ENDCHAR
STARTCHAR DeleteKey
ENCODING 242
SWIDTH 1890 0
DWIDTH 28 0
BBX 26 12 1 -2
BITMAP
ffffffc0
80000040
80000040
bba7ff40
a6242440
a6242440
a7a72740
a6242440
a6242440
bbbf2740
80000040
ffffffc0
ENDCHAR
STARTCHAR EnterKey
ENCODING 243
SWIDTH 1668 0
DWIDTH 25 0
BBX 23 12 1 -2
BITMAP
fffffe
800002
800002
beffba
a6922a
a6922a
be93b2
a5922a
a5922a
bd93aa
800002
fffffe
ENDCHAR
STARTCHAR EscapeKey
ENCODING 244
SWIDTH 2000 0
DWIDTH 30 0
BBX 28 12 1 -2
BITMAP
fffffff0
80000010
80000010
ba2119d0
a5511510
a4429510
ba4299d0
a1439110
a5545110
ba2451d0
80000010
fffffff0
ENDCHAR
STARTCHAR OptionKey
ENCODING 245
SWIDTH 1869 0
DWIDTH 28 0
BBX 26 12 1 -2
BITMAP
ffffffc0
80000040
80000040
99fccd40
a5552d40
a5552d40
a5952d40
a5152b40
a5152b40
9914cb40
80000040
ffffffc0
ENDCHAR
STARTCHAR ReturnKey
ENCODING 246
SWIDTH 2015 0
DWIDTH 30 0
BBX 28 12 1 -2
BITMAP
fffffff0
80000010
80000010
bbf97690
aa295690
aa295690
b3a96690
aa295590
aa295590
aba65590
80000010
fffffff0
ENDCHAR
STARTCHAR ShiftKey
ENCODING 247
SWIDTH 1563 0
DWIDTH 23 0
BBX 21 12 1 -2
BITMAP
fffff8
800008
800008
92aff8
aaa848
a2a848
93ac48
8aa848
aaa848
92a848
800008
fffff8
ENDCHAR
STARTCHAR SpaceKey
ENCODING 248
SWIDTH 1699 0
DWIDTH 25 0
BBX 23 12 1 -2
BITMAP
fffffe
800002
800002
93113a
aa92a2
a2aa22
932a3a
8a3a22
aa46a2
92453a
800002
fffffe
ENDCHAR
STARTCHAR Mod1Key
ENCODING 249
SWIDTH 1543 0
DWIDTH 23 0
BBX 21 12 1 -2
BITMAP
fffff8
800008
800008
b66728
b694e8
b694a8
aa94a8
aa94a8
aa94a8
aa6728
800008
fffff8
ENDCHAR
STARTCHAR Mod2Key
ENCODING 250
SWIDTH 1655 0
DWIDTH 25 0
BBX 23 12 1 -2
BITMAP
fffffe
800002
800002
b6673a
b694aa
b6948a
aa9492
aa9492
aa94a2
aa673a
800002
fffffe
ENDCHAR
STARTCHAR RKeyBracket2
ENCODING 251
SWIDTH 245 0
DWIDTH 4 0
BBX 2 16 1 -4
BITMAP
c0
80
80
80
80
80
80
80
80
80
80
80
80
80
80
c0
ENDCHAR
STARTCHAR LUpHookExt
ENCODING 252
SWIDTH 591 0
DWIDTH 9 0
BBX 5 4 1 0
BITMAP
d8
d8
f8
70
ENDCHAR
STARTCHAR RUpHookExt
ENCODING 253
SWIDTH 250 0
DWIDTH 9 0
BBX 5 4 3 0
BITMAP
d8
d8
f8
70
ENDCHAR
STARTCHAR LDownHookExt
ENCODING 254
SWIDTH 250 0
DWIDTH 9 0
BBX 5 4 1 0
BITMAP
70
f8
d8
d8
ENDCHAR
STARTCHAR RDownHookExt
ENCODING 255
SWIDTH 0 0
DWIDTH 9 0
BBX 5 4 3 0
BITMAP
70
f8
d8
d8
ENDCHAR
ENDFONT
